<svg xmlns="http://www.w3.org/2000/svg" viewBox="0 0 207.96 82.04"><title>cineluv logo</title><g id="Layer_1" data-name="Layer 1"><path class="cls-1" d="M256.22,431.9q.42,5.63,10.1,5.62,8.9,0,10.22-4.95H271.4a4,4,0,0,1-2.07,1.8,8,8,0,0,1-3,.55,7,7,0,0,1-3-.7,2.45,2.45,0,0,1-1.51-2.36,2.75,2.75,0,0,1,1.57-2.49,7,7,0,0,1,3-.66,11.34,11.34,0,0,1,3.14.43,2.2,2.2,0,0,1,1.76,1.49h5.35q-1.45-4.77-10.25-4.77-9.69,0-10.1,6ZM277.91,426v11.36h5.29V426Zm6.63,0v11.36h4.35V430.3l7.67,7.09h6.38V426h-4.29v6.86L290.72,426Zm19.74,0v11.36h15.36v-2.85H309.19v-1.78l9.25,0,0-2.39h-9.28v-1.68h10.45V426Zm16.7,0h6.8l4.06,5.93,4.08-5.93h6.68v11.36h-4.25v-7.18l-4.59,7.18h-3.92l-4.56-7.18v7.18H321V426Zm30.29,7.06h4.63L353.56,429l-2.29,4.11ZM350.1,426h6.83l6.2,11.36h-4.91l-1.12-2H350l-1.13,2h-5Z" transform="translate(-202.52 -355.48)"/><path class="cls-2" d="M251.78,418.12h-9.66a.78.78,0,0,1-.58-.22.82.82,0,0,1-.22-.58V378.84a.82.82,0,0,1,.22-.58.78.78,0,0,1,.58-.22h9.66a.8.8,0,0,1,.57.22.75.75,0,0,1,.24.58v38.48a.75.75,0,0,1-.24.58A.8.8,0,0,1,251.78,418.12Z" transform="translate(-202.52 -355.48)"/><path class="cls-2" d="M232.1,404.25l7.74,6.14a.77.77,0,0,1,.28.52.71.71,0,0,1-.16.56,21.22,21.22,0,0,1-7.24,5.73,21.19,21.19,0,0,1-17.33.44,20.63,20.63,0,0,1-11.21-11.14,20.74,20.74,0,0,1,0-16.26,21,21,0,0,1,4.5-6.67,21.3,21.3,0,0,1,6.71-4.47,21,21,0,0,1,17.31.42,21,21,0,0,1,7.22,5.69.85.85,0,0,1,.16.61.82.82,0,0,1-.28.52l-7.74,6.09a.77.77,0,0,1-.54.18.67.67,0,0,1-.5-.26,11.34,11.34,0,0,0-3.39-2.57,9,9,0,0,0-4.06-1,9.58,9.58,0,1,0,0,19.16,9,9,0,0,0,4.08-1,11,11,0,0,0,3.41-2.61.71.71,0,0,1,.5-.26A.77.77,0,0,1,232.1,404.25Z" transform="translate(-202.52 -355.48)"/><path class="cls-2" d="M375.32,395.28v7.61a19.88,19.88,0,0,1-.52,4.59,16.15,16.15,0,0,1-1.8,4.41,14.72,14.72,0,0,1-3.21,3.81,14.47,14.47,0,0,1-5,2.6,24.26,24.26,0,0,1-13.65,0,14.76,14.76,0,0,1-5-2.6,14.41,14.41,0,0,1-3.23-3.81,16.15,16.15,0,0,1-1.8-4.41,19.88,19.88,0,0,1-.52-4.59V378.8a.75.75,0,0,1,.76-.76h9.7a.79.79,0,0,1,.56.22.71.71,0,0,1,.24.54v24.29a9,9,0,0,0,.3,2.35,7.15,7.15,0,0,0,1,2.1,4.6,4.6,0,0,0,1.93,1.58,7.35,7.35,0,0,0,5.77,0,4.39,4.39,0,0,0,1.9-1.58,7.73,7.73,0,0,0,1-2.1,8.55,8.55,0,0,0,.32-2.35V378.8a.73.73,0,0,1,.22-.54.72.72,0,0,1,.54-.22h4.26Z" transform="translate(-202.52 -355.48)"/><path class="cls-2" d="M340.45,417.32a.82.82,0,0,1-.22.58.73.73,0,0,1-.54.22H317.32a.76.76,0,0,1-.8-.8V378.84a.76.76,0,0,1,.8-.8H327a.79.79,0,0,1,.56.22.75.75,0,0,1,.24.58v29.94h11.87a.76.76,0,0,1,.8.8Z" transform="translate(-202.52 -355.48)"/><path class="cls-2" d="M291,418.12a.76.76,0,0,1-.58-.22.78.78,0,0,1-.23-.58V378.84a.78.78,0,0,1,.23-.58A.76.76,0,0,1,291,378h23.52a.8.8,0,0,1,.57.22.75.75,0,0,1,.24.58v8a.82.82,0,0,1-.81.8H301.49v5.69h11.3a.72.72,0,0,1,.54.22.73.73,0,0,1,.22.54v8a.73.73,0,0,1-.22.54.72.72,0,0,1-.54.22h-11.3v5.73h13.06a.85.85,0,0,1,.57.22.71.71,0,0,1,.24.54v8a.75.75,0,0,1-.24.58.8.8,0,0,1-.57.22Z" transform="translate(-202.52 -355.48)"/><path class="cls-2" d="M277.8,378.84a.78.78,0,0,1,.22-.58.72.72,0,0,1,.54-.22h9.7a.79.79,0,0,1,.56.22.75.75,0,0,1,.24.58v38.48a.82.82,0,0,1-.8.8h-10a.74.74,0,0,1-.68-.4L265,395.52v21.8a.75.75,0,0,1-.24.58.79.79,0,0,1-.56.22h-9.66a.76.76,0,0,1-.8-.8V378.84a.76.76,0,0,1,.8-.8h10a.68.68,0,0,1,.64.36l12.59,20.24Z" transform="translate(-202.52 -355.48)"/><path class="cls-1" d="M396.35,365.57a7.87,7.87,0,1,1-7.87,7.87A7.87,7.87,0,0,1,396.35,365.57Z" transform="translate(-202.52 -355.48)"/><path class="cls-1" d="M385.57,415.85h-.65l.38,1h-.45a.72.72,0,0,1-.72-.53l-22-59.6a.67.67,0,0,1,0-.24v-.28a.73.73,0,0,1,.22-.54.8.8,0,0,1,.36-.2l1.45,0h8.59a.71.71,0,0,1,.72.52l16.35,44.29,4.6-12.3q.62.09,1.26.12l-.43,1.16h1.47l.43-1.17a14.61,14.61,0,0,0,7.43-2.49l-.32.85h1.47l.55-1.5h-.81a15,15,0,0,0,2.76-2.87l-12.72,34.27a.72.72,0,0,1-.72.53h0l-.38-1h-1.47l.39,1h-6.51l-.39-1h-.81Zm5.93-12.54.55-1.5h-1.46l-.13.35.42,1.15Zm1-2.81.56-1.5h-1.47l-.55,1.5Zm1-2.8.55-1.51h-1.46l-.56,1.51Zm1-2.81.56-1.51H393.7l-.56,1.51Zm1-2.81.56-1.51h-1.47l-.55,1.51Zm-.31,22.46.56-1.5h-1.42l.55,1.5Zm1-2.8.55-1.51h-1.46l-.56,1.51Zm1-2.81.56-1.51h-1.47l-.55,1.51Zm1-2.81.55-1.51h-1.46l-.56,1.51Zm1-2.81.56-1.5h-1.46l-.56,1.5Zm1-2.81.56-1.5H399.6l-.55,1.5Zm1-2.8.55-1.51h-1.46l-.56,1.51Zm1-2.81.56-1.51h-1.47l-.55,1.51Zm1-2.81.55-1.51h-1.46l-.56,1.51Zm1-2.81.56-1.5h-1.47l-.55,1.5Zm-32.4-32.39h-1.1l.55,1.5h1.47l-.56-1.5h-.36Zm1,2.8h-1.08l.56,1.51h1.46l-.55-1.51h-.39Zm1,2.81h-1l.55,1.51h1.47l-.56-1.51h-.41Zm1,2.81h-1l.55,1.51h1.47l-.56-1.51h-.45Zm1,2.81h-1l.56,1.5h1.46l-.55-1.5h-.48Zm1,2.81h-1l.55,1.5h1.47l-.56-1.5h-.5Zm1,2.8h-.94l.56,1.51h1.46l-.55-1.51h-.53Zm1,2.81h-.91l.1.27L379,378h1.47l-.56-1.51h-.55Zm1,2.81h-.89l.56,1.51h1.46l-.55-1.51h-.58Zm1,2.81h-.86l.38,1h0l.17.46h1.47l-.56-1.5h-.6Zm1,2.81h-.83l.56,1.5h1.46L383,385h-.64Zm1,2.81h-.8l.55,1.5h1.47l-.56-1.5h-.66Zm1,2.8h-.78l.56,1.51h1.46l-.55-1.51h-.69Zm1,2.81h-.75l.56,1.51h1.46l-.56-1.51h-.71Zm1,2.81h-.72l.55,1.51h1.47l-.56-1.51h-.74Zm1,2.81h-.7l.56,1.5h1.46l-.55-1.5h-.77Zm1,2.81h-.66l.55,1.5h1.47l-.56-1.5h-.8Zm1,2.8h-.64l.56,1.51h1.46l-.55-1.51h-.83Zm1,2.81h-.61l.55,1.51h1.47l-.56-1.51h-.85Zm1,2.81h-.59l.56,1.51h1.46l-.55-1.51h-.88Zm1,2.81h-.56l.55,1.5h1.47l-.56-1.5h-.9Zm-28.63-56.16h-.62l.56,1.5h1.46l-.55-1.5h-.85Zm1,2.8h-.62l.55,1.51h1.47l-.56-1.51h-.84Zm1,2.81h-.63l.56,1.51h1.46l-.55-1.51h-.84Zm1,2.81h-.62l.55,1.51h1.47l-.56-1.51h-.84Zm1,2.81h-.63l.56,1.5h1.46l-.55-1.5h-.84Zm1,2.81h-.63l.56,1.5h1.46l-.55-1.5H369Zm1,2.8h-.62l.55,1.51h1.47l-.56-1.51H370Zm1,2.81h-.63L371,378h1.46l-.55-1.51h-.84Zm1,2.81h-.63l.55,1.51h1.47l-.56-1.51h-.83Zm1,2.81h-.64l.39,1h0l.17.46h1.46l-.55-1.5h-.83Zm1,2.81h-.63l.55,1.5h1.47L375,385h-.83Zm1,2.81h-.64l.56,1.5h1.46l-.55-1.5h-.83Zm1,2.8h-.64l.55,1.51h1.47l-.56-1.51h-.82Zm1,2.81h-.64l.56,1.51h1.46l-.55-1.51h-.83Zm1,2.81h-.64l.56,1.51h1.46l-.56-1.51h-.82Zm1,2.81h-.64l.55,1.5h1.47l-.56-1.5h-.82Zm1,2.81h-.64l.56,1.5h1.46l-.55-1.5h-.83Zm1,2.8h-.64l.55,1.51h1.47l-.56-1.51h-.82Zm1,2.81h-.65l.56,1.51h1.46l-.55-1.51h-.82Zm1,2.81h-.64l.55,1.51h1.47l-.56-1.51h-.82Zm1,2.81h-.65l.56,1.5h1.46l-.55-1.5h-.82Z" transform="translate(-202.52 -355.48)"/><path class="cls-3" d="M396.35,359.31h0a14.17,14.17,0,0,1,14.13,14.13h0a14.17,14.17,0,0,1-14.13,14.13h0a14.17,14.17,0,0,1-14.13-14.13h0a14.17,14.17,0,0,1,14.13-14.13Zm0,12.45a1.69,1.69,0,1,0,1.68,1.68,1.69,1.69,0,0,0-1.68-1.68Zm-10.57-4.42A3.8,3.8,0,1,0,391,366a3.8,3.8,0,0,0-5.19,1.39Zm0,12.2a3.8,3.8,0,1,0,1.39-5.19,3.8,3.8,0,0,0-1.39,5.19Zm10.57,6.1a3.8,3.8,0,1,0-3.8-3.8,3.8,3.8,0,0,0,3.8,3.8Zm10.56-6.1a3.8,3.8,0,1,0-5.19,1.39,3.8,3.8,0,0,0,5.19-1.39Zm0-12.2a3.8,3.8,0,1,0-1.39,5.19,3.8,3.8,0,0,0,1.39-5.19Zm-10.56-6.1a3.8,3.8,0,1,0,3.8,3.8A3.8,3.8,0,0,0,396.35,361.24Z" transform="translate(-202.52 -355.48)"/></g></svg>